HIERARCHY
ROOT SimulationBone
{
	OFFSET 0.000000 0.000000 0.000000
	CHANNELS 6 Xposition Yposition Zposition Zrotation Yrotation Xrotation 
	JOINT Hips
	{
		OFFSET 0.000000 0.000000 0.000000
		CHANNELS 6 Xposition Yposition Zposition Zrotation Yrotation Xrotation 
		JOINT RightUpLeg
		{
			OFFSET 0.103457 1.857831 10.548505
			CHANNELS 3 Zrotation Yrotation Xrotation
			JOINT RightLeg
			{
				OFFSET 43.500000 -0.000038 -0.000004
				CHANNELS 3 Zrotation Yrotation Xrotation
				JOINT RightFoot
				{
					OFFSET 42.372208 0.000027 -0.000004
					CHANNELS 3 Zrotation Yrotation Xrotation
					JOINT RightToe
					{
						OFFSET 17.300005 0.000002 0.000002
						CHANNELS 3 Zrotation Yrotation Xrotation
						End Site
						{
							OFFSET 0.000000 0.000000 0.000000
						}
					}
				}
			}
		}
		JOINT LeftUpLeg
		{
			OFFSET 0.103462 1.857825 -10.548504
			CHANNELS 3 Zrotation Yrotation Xrotation
			JOINT LeftLeg
			{
				OFFSET 43.500042 -0.000027 0.000011
				CHANNELS 3 Zrotation Yrotation Xrotation
				JOINT LeftFoot
				{
					OFFSET 42.372265 -0.000015 0.000012
					CHANNELS 3 Zrotation Yrotation Xrotation
					JOINT LeftToe
					{
						OFFSET 17.299988 -0.000007 0.000010
						CHANNELS 3 Zrotation Yrotation Xrotation
						End Site
						{
							OFFSET 0.000000 0.000000 0.000000
						}
					}
				}
			}
		}
		JOINT Spine
		{
			OFFSET 6.901970 -2.603737 0.000000
			CHANNELS 3 Zrotation Yrotation Xrotation
			JOINT Spine1
			{
				OFFSET 12.588099 0.000007 0.000001
				CHANNELS 3 Zrotation Yrotation Xrotation
				JOINT Spine2
				{
					OFFSET 12.343201 0.000001 0.000000
					CHANNELS 3 Zrotation Yrotation Xrotation
					JOINT Neck
					{
						OFFSET 25.832897 -0.000008 -0.000001
						CHANNELS 3 Zrotation Yrotation Xrotation
						JOINT Head
						{
							OFFSET 11.766607 0.000021 0.000000
							CHANNELS 3 Zrotation Yrotation Xrotation
							End Site
							{
								OFFSET 0.000000 0.000000 0.000000
							}
						}
					}
					JOINT RightShoulder
					{
						OFFSET 19.745903 -1.480373 6.000104
						CHANNELS 3 Zrotation Yrotation Xrotation
						JOINT RightArm
						{
							OFFSET 11.284125 -0.000018 -0.000023
							CHANNELS 3 Zrotation Yrotation Xrotation
							JOINT RightForeArm
							{
								OFFSET 33.000050 0.000010 0.000034
								CHANNELS 3 Zrotation Yrotation Xrotation
								JOINT RightHand
								{
									OFFSET 25.200010 0.000001 -0.000001
									CHANNELS 3 Zrotation Yrotation Xrotation
									End Site
									{
										OFFSET 0.000000 0.000000 0.000000
									}
								}
							}
						}
					}
					JOINT LeftShoulder
					{
						OFFSET 19.746090 -1.480381 -6.000076
						CHANNELS 3 Zrotation Yrotation Xrotation
						JOINT LeftArm
						{
							OFFSET 11.284138 -0.000019 -0.000020
							CHANNELS 3 Zrotation Yrotation Xrotation
							JOINT LeftForeArm
							{
								OFFSET 33.000092 0.000024 0.000022
								CHANNELS 3 Zrotation Yrotation Xrotation
								JOINT LeftHand
								{
									OFFSET 25.199774 0.000133 0.000423
									CHANNELS 3 Zrotation Yrotation Xrotation
									End Site
									{
										OFFSET 0.000000 0.000000 0.000000
									}
								}
							}
						}
					}
				}
			}
		}
	}
}
MOTION
Frames: 11
Frame Time: 0.016667
62.277026 0.000000 -156.271458 0.000000 -62.594593 0.000000 -0.702102 89.784233 -0.555831 93.687763 -1.327995 -179.638065 179.911008 -4.833402 -178.290040 -24.506876 -4.120424 -11.926967 89.431388 6.832841 -10.065830 21.454560 0.003106 0.000018 173.484537 17.097505 -170.960304 -26.452949 1.970919 0.213223 84.348669 2.604815 13.690233 21.454555 -0.003082 -0.000001 8.810741 -0.325787 -0.351850 7.610723 -0.627719 -0.724311 7.292639 -0.632216 -0.720512 7.217606 2.796670 -0.937730 3.993064 -0.227077 -0.309814 146.151102 -71.649808 33.461539 -9.198684 57.223903 19.290765 -45.996153 -17.597649 1.826588 7.844624 -9.788789 33.372768 -176.720312 73.084024 4.712600 -9.544090 -58.975943 -27.471739 -71.641867 11.195991 -2.295442 6.008497 9.063504 -27.859103 
62.439230 0.000000 -156.415069 0.000000 -62.578664 0.000000 -0.704640 89.744669 -0.378181 93.785405 -1.296632 -179.798313 179.726386 -4.857677 -178.658750 -25.052858 -4.046584 -11.817336 89.477946 6.741491 -10.137440 21.454560 0.003104 0.000018 172.861783 17.197782 -171.754995 -27.927851 1.930368 -0.008662 84.300358 3.006556 14.776797 21.454550 -0.003094 0.000001 8.824379 -0.417318 -0.394233 7.638965 -0.807688 -0.815112 7.320888 -0.812745 -0.810215 7.331029 2.633121 -0.762035 3.896138 0.099877 -0.227200 147.076896 -71.574205 32.521308 -8.416258 56.654364 19.688909 -45.533709 -17.612089 1.813561 7.650012 -10.078880 32.357218 -176.351789 73.224612 5.093595 -10.224317 -58.887669 -27.377388 -71.502655 11.135276 -2.285417 5.622896 8.488269 -26.708562 
62.556569 0.000000 -156.509187 0.000000 -62.532041 0.000000 -0.702872 89.744873 -0.211100 93.921111 -1.223769 -179.863547 179.645477 -4.923097 -178.579490 -25.417912 -4.051665 -11.895531 89.401178 6.766408 -10.266469 21.454560 0.003105 0.000018 172.242536 17.080999 -172.007263 -29.717250 1.594016 -0.144335 84.354502 3.177009 15.146378 21.454551 -0.003088 0.000001 8.845524 -0.506496 -0.456167 7.682530 -0.981580 -0.944916 7.364441 -0.987414 -0.938968 7.499957 2.766309 -0.623085 3.991752 0.212551 -0.084209 147.430301 -71.522917 32.163827 -7.357961 56.062529 20.242696 -45.154383 -17.609256 1.801898 7.642392 -10.207662 31.590765 -176.375073 73.254198 5.070113 -10.709086 -58.695222 -27.394167 -71.389929 11.112446 -2.279303 5.129001 8.484509 -26.940401 
62.631087 0.000000 -156.556900 0.000000 -62.456247 0.000000 -0.692799 89.781868 -0.057014 94.074097 -1.114671 -179.864846 179.660346 -5.043520 -178.293186 -25.606628 -4.092250 -12.043825 89.217165 6.831061 -10.420802 21.454559 0.003106 0.000017 171.772971 16.811533 -171.923549 -31.360392 1.147621 -0.107274 84.486681 3.113505 15.021240 21.454553 -0.003077 -0.000000 8.868999 -0.585683 -0.518203 7.730858 -1.135434 -1.074344 7.412752 -1.142037 -1.067471 7.684429 2.996821 -0.520836 4.187294 0.260521 0.052730 147.396386 -71.504906 32.199743 -6.197326 55.458096 20.906370 -44.838823 -17.595575 1.791546 7.770400 -10.198857 31.085665 -176.530891 73.247521 4.909854 -10.974342 -58.507668 -27.434708 -71.367053 11.120242 -2.278965 4.588867 8.817358 -28.097637 
62.664830 0.000000 -156.561295 0.000000 -62.352786 0.000000 -0.670357 89.852676 0.081695 94.223567 -0.974558 -179.833367 179.763230 -5.234102 -178.041011 -25.623590 -4.123156 -12.145243 88.942340 6.858993 -10.568160 21.454558 0.003106 0.000017 171.596564 16.448393 -171.714098 -32.397997 0.780665 0.172331 84.678888 2.814870 14.622953 21.454555 -0.003075 -0.000001 8.889557 -0.647267 -0.560869 7.773113 -1.255394 -1.163925 7.454994 -1.262528 -1.156333 7.843391 3.125445 -0.456564 4.390548 0.394076 0.117112 147.155085 -71.525772 32.444834 -5.100245 54.853124 21.642727 -44.567636 -17.577461 1.782337 7.984948 -10.079101 30.854829 -176.556784 73.279176 4.883705 -10.997428 -58.433346 -27.409676 -71.497429 11.151388 -2.286410 4.054706 9.258895 -29.721697 
62.659842 0.000000 -156.525459 0.000000 -62.223153 0.000000 -0.633584 89.953646 0.203223 94.341948 -0.809418 -179.790902 179.931279 -5.504853 -178.005702 -25.481743 -4.112845 -12.109814 88.594387 6.791993 -10.682225 21.454557 0.003104 0.000017 171.800503 16.030954 -171.518141 -32.485676 0.621843 0.738983 84.921696 2.282016 14.129971 21.454554 -0.003088 -0.000000 8.899794 -0.686391 -0.570616 7.794165 -1.332779 -1.186148 7.476045 -1.340050 -1.178092 7.944612 3.026962 -0.434296 4.534030 0.697816 0.067228 146.862706 -71.584748 32.739378 -4.182707 54.250131 22.436227 -44.325374 -17.558559 1.773968 8.235634 -9.864655 30.899627 -176.270237 73.400710 5.179976 -10.767321 -58.539789 -27.268221 -71.803651 11.190800 -2.301682 3.567741 9.651646 -31.293926 
62.618169 0.000000 -156.452481 0.000000 -62.068831 0.000000 -0.589157 90.078423 0.307875 94.374906 -0.628721 -179.721516 -179.922674 -5.846800 -178.134571 -25.226501 -4.085350 -11.955110 88.194175 6.643731 -10.763186 21.454558 0.003105 0.000017 172.243929 15.536312 -171.179608 -31.740072 0.571816 1.584562 85.231860 1.525455 13.549824 21.454553 -0.003100 0.000001 8.883867 -0.709144 -0.557643 7.762433 -1.379267 -1.161586 7.444313 -1.386397 -1.153245 7.993203 2.871760 -0.464092 4.649176 0.990663 -0.042128 146.592209 -71.657663 33.010497 -3.389844 53.602684 23.326067 -44.112434 -17.531472 1.765887 8.460496 -9.523259 31.175086 -175.812812 73.570791 5.652392 -10.322427 -58.730964 -27.110251 -72.144835 11.192439 -2.315966 3.086603 10.085700 -32.076599 
62.541855 0.000000 -156.345448 0.000000 -61.891296 0.000000 -0.544462 90.214522 0.395278 94.288260 -0.456095 -179.617007 -179.876275 -6.226242 -178.318780 -24.922827 -4.069046 -11.733406 87.767450 6.450070 -10.826010 21.454559 0.003111 0.000018 172.758947 14.965656 -170.576776 -30.397828 0.532016 2.635377 85.570819 0.617487 12.927607 21.454552 -0.003095 0.000002 8.831391 -0.726482 -0.535291 7.657412 -1.415939 -1.117479 7.339281 -1.422804 -1.108905 8.006982 2.847471 -0.544401 4.771308 1.086487 -0.141765 146.404436 -71.721575 33.197682 -2.651602 52.870763 24.308991 -43.944585 -17.486496 1.757942 8.603535 -9.041597 31.624531 -175.402958 73.728734 6.075572 -9.716389 -58.878710 -27.037828 -72.386727 11.115215 -2.320601 2.609935 10.669521 -31.541561 
62.432946 0.000000 -156.207449 0.000000 -61.692021 0.000000 -0.501120 90.327637 0.460433 94.154638 -0.367676 -179.536170 -179.902825 -6.526502 -178.464114 -24.681409 -4.053132 -11.527661 87.357203 6.263520 -10.917512 21.454560 0.003119 0.000018 173.314042 14.486608 -170.020757 -28.706389 0.655438 3.599120 85.641289 -0.138349 12.637779 21.454551 -0.003085 0.000001 8.762150 -0.757971 -0.505708 7.518922 -1.481480 -1.059596 7.200769 -1.487992 -1.050621 8.016695 2.915418 -0.623559 4.847980 1.045491 -0.199732 146.387781 -71.781249 33.210396 -1.972849 52.097069 25.192324 -43.883128 -17.415758 1.751580 8.640376 -8.533766 32.192050 -175.214802 73.825926 6.270103 -9.018402 -58.892607 -27.008602 -72.585621 10.968173 -2.318690 2.362905 11.306398 -30.208696 
62.293487 0.000000 -156.041569 0.000000 -61.472476 0.000000 -0.459340 90.395889 0.498897 94.054193 -0.410310 -179.545513 -179.939630 -6.662686 -178.506975 -24.560287 -4.021791 -11.411400 86.988365 6.130046 -11.076539 21.454560 0.003122 0.000018 173.913196 14.234257 -169.812275 -26.900209 1.084820 4.216577 85.167902 -0.483280 12.932616 21.454549 -0.003084 -0.000000 8.697540 -0.815847 -0.465007 7.389806 -1.600339 -0.981144 7.071622 -1.606370 -0.971465 8.058930 2.988592 -0.654696 4.821913 0.979210 -0.206658 146.578232 -71.837302 33.011908 -1.350657 51.340021 25.810890 -43.975582 -17.324962 1.748467 8.574668 -8.118352 32.787422 -175.344676 73.846661 6.136976 -8.310380 -58.737328 -26.957650 -72.811312 10.786819 -2.315616 2.535580 11.843422 -28.754751 
62.125523 0.000000 -155.850898 0.000000 -61.234131 0.000000 -0.419810 90.468933 0.513061 93.989582 -0.461078 -179.678524 -179.880122 -6.761600 -178.489386 -24.361545 -3.983146 -11.390086 86.596033 6.054558 -11.275249 21.454560 0.003120 0.000018 174.527179 14.024599 -169.798967 -25.174539 1.592287 4.531159 84.269186 -0.561002 13.214707 21.454550 -0.003088 -0.000001 8.635321 -0.874360 -0.396476 7.264978 -1.722098 -0.847007 6.946764 -1.727313 -0.836608 8.179817 3.012763 -0.660093 4.706480 0.958660 -0.208193 146.771310 -71.847235 32.814040 -0.727014 50.626519 26.253771 -44.169091 -17.272256 1.750499 8.498732 -7.808121 33.183749 -175.618111 73.894891 5.856796 -7.693298 -58.557573 -26.892405 -72.997127 10.662640 -2.314615 3.001499 12.188096 -27.452899 
